{
    "asset" : {
        "generator" : "Khronos glTF Blender I/O v1.0.5",
        "version" : "2.0"
    },
    "scene" : 0,
    "scenes" : [
        {
            "name" : "Scene",
            "nodes" : [
                0,
                1,
                2,
                3,
                4,
                5,
                6,
                7,
                8
            ]
        }
    ],
    "nodes" : [
        {
            "mesh" : 0,
            "name" : "car",
            "translation" : [
                0,
                -0.5579720139503479,
                -0.026360999792814255
            ]
        },
        {
            "name" : "Light",
            "rotation" : [
                0.16907575726509094,
                0.7558803558349609,
                -0.27217137813568115,
                0.570947527885437
            ],
            "translation" : [
                4.076245307922363,
                5.903861999511719,
                -1.0054539442062378
            ]
        },
        {
            "name" : "Camera",
            "rotation" : [
                0.483536034822464,
                0.33687159419059753,
                -0.20870360732078552,
                0.7804827094078064
            ],
            "translation" : [
                7.358891487121582,
                4.958309173583984,
                6.925790786743164
            ]
        },
        {
            "name" : "Empty",
            "rotation" : [
                0.5,
                0.5,
                -0.5,
                0.4999999701976776
            ]
        },
        {
            "mesh" : 1,
            "name" : "hoverEngineFR",
            "scale" : [
                0.35024145245552063,
                0.35024145245552063,
                0.35024145245552063
            ],
            "translation" : [
                0.7424799799919128,
                -0.8970744013786316,
                -1.413066029548645
            ]
        },
        {
            "mesh" : 2,
            "name" : "hoverEngineBR",
            "scale" : [
                0.35024145245552063,
                0.35024145245552063,
                0.35024145245552063
            ],
            "translation" : [
                0.7424799799919128,
                -0.8970744013786316,
                1.221009612083435
            ]
        },
        {
            "mesh" : 3,
            "name" : "hoverEngineBL",
            "scale" : [
                0.35024145245552063,
                0.35024145245552063,
                0.35024145245552063
            ],
            "translation" : [
                -0.7225634455680847,
                -0.8970744013786316,
                1.221009612083435
            ]
        },
        {
            "mesh" : 4,
            "name" : "hoverEngineFL",
            "scale" : [
                0.35024145245552063,
                0.35024145245552063,
                0.35024145245552063
            ],
            "translation" : [
                -0.7039809226989746,
                -0.8970744013786316,
                -1.413066029548645
            ]
        },
        {
            "mesh" : 5,
            "name" : "boxCollider",
            "scale" : [
                1.0973156690597534,
                0.6697701811790466,
                2.28513240814209
            ],
            "translation" : [
                -0.004320021718740463,
                -0.49161791801452637,
                -0.004063636064529419
            ]
        }
    ],
    "materials" : [
        {
            "doubleSided" : true,
            "name" : "Material",
            "pbrMetallicRoughness" : {
                "baseColorFactor" : [
                    0.800000011920929,
                    0.800000011920929,
                    0.800000011920929,
                    1
                ],
                "metallicFactor" : 0,
                "roughnessFactor" : 0.4000000059604645
            }
        }
    ],
    "meshes" : [
        {
            "name" : "Cube",
            "primitives" : [
                {
                    "attributes" : {
                        "POSITION" : 0,
                        "NORMAL" : 1,
                        "TEXCOORD_0" : 2
                    },
                    "indices" : 3,
                    "material" : 0
                }
            ]
        },
        {
            "name" : "Sphere.001",
            "primitives" : [
                {
                    "attributes" : {
                        "POSITION" : 4,
                        "NORMAL" : 5,
                        "TEXCOORD_0" : 6
                    },
                    "indices" : 7
                }
            ]
        },
        {
            "name" : "Sphere.002",
            "primitives" : [
                {
                    "attributes" : {
                        "POSITION" : 8,
                        "NORMAL" : 9,
                        "TEXCOORD_0" : 10
                    },
                    "indices" : 7
                }
            ]
        },
        {
            "name" : "Sphere.003",
            "primitives" : [
                {
                    "attributes" : {
                        "POSITION" : 11,
                        "NORMAL" : 12,
                        "TEXCOORD_0" : 13
                    },
                    "indices" : 7
                }
            ]
        },
        {
            "name" : "Sphere.004",
            "primitives" : [
                {
                    "attributes" : {
                        "POSITION" : 14,
                        "NORMAL" : 15,
                        "TEXCOORD_0" : 16
                    },
                    "indices" : 7
                }
            ]
        },
        {
            "name" : "Cube.001",
            "primitives" : [
                {
                    "attributes" : {
                        "POSITION" : 17,
                        "NORMAL" : 18,
                        "TEXCOORD_0" : 19
                    },
                    "indices" : 20
                }
            ]
        }
    ],
    "accessors" : [
        {
            "bufferView" : 0,
            "componentType" : 5126,
            "count" : 1851,
            "max" : [
                0.928720235824585,
                0.7092070579528809,
                2.2045669555664062
            ],
            "min" : [
                -0.928720235824585,
                -0.48113906383514404,
                -2.249133348464966
            ],
            "type" : "VEC3"
        },
        {
            "bufferView" : 1,
            "componentType" : 5126,
            "count" : 1851,
            "type" : "VEC3"
        },
        {
            "bufferView" : 2,
            "componentType" : 5126,
            "count" : 1851,
            "type" : "VEC2"
        },
        {
            "bufferView" : 3,
            "componentType" : 5123,
            "count" : 3204,
            "type" : "SCALAR"
        },
        {
            "bufferView" : 4,
            "componentType" : 5126,
            "count" : 482,
            "max" : [
                0.9999997615814209,
                1,
                0.9999995231628418
            ],
            "min" : [
                -0.9999996423721313,
                -0.7071067690849304,
                -0.9999997019767761
            ],
            "type" : "VEC3"
        },
        {
            "bufferView" : 5,
            "componentType" : 5126,
            "count" : 482,
            "type" : "VEC3"
        },
        {
            "bufferView" : 6,
            "componentType" : 5126,
            "count" : 482,
            "type" : "VEC2"
        },
        {
            "bufferView" : 7,
            "componentType" : 5123,
            "count" : 678,
            "type" : "SCALAR"
        },
        {
            "bufferView" : 8,
            "componentType" : 5126,
            "count" : 482,
            "max" : [
                0.9999997615814209,
                1,
                0.9999995231628418
            ],
            "min" : [
                -0.9999996423721313,
                -0.7071067690849304,
                -0.9999997019767761
            ],
            "type" : "VEC3"
        },
        {
            "bufferView" : 9,
            "componentType" : 5126,
            "count" : 482,
            "type" : "VEC3"
        },
        {
            "bufferView" : 10,
            "componentType" : 5126,
            "count" : 482,
            "type" : "VEC2"
        },
        {
            "bufferView" : 11,
            "componentType" : 5126,
            "count" : 482,
            "max" : [
                0.9999997615814209,
                1,
                0.9999995231628418
            ],
            "min" : [
                -0.9999996423721313,
                -0.7071067690849304,
                -0.9999997019767761
            ],
            "type" : "VEC3"
        },
        {
            "bufferView" : 12,
            "componentType" : 5126,
            "count" : 482,
            "type" : "VEC3"
        },
        {
            "bufferView" : 13,
            "componentType" : 5126,
            "count" : 482,
            "type" : "VEC2"
        },
        {
            "bufferView" : 14,
            "componentType" : 5126,
            "count" : 482,
            "max" : [
                0.9999997615814209,
                1,
                0.9999995231628418
            ],
            "min" : [
                -0.9999996423721313,
                -0.7071067690849304,
                -0.9999997019767761
            ],
            "type" : "VEC3"
        },
        {
            "bufferView" : 15,
            "componentType" : 5126,
            "count" : 482,
            "type" : "VEC3"
        },
        {
            "bufferView" : 16,
            "componentType" : 5126,
            "count" : 482,
            "type" : "VEC2"
        },
        {
            "bufferView" : 17,
            "componentType" : 5126,
            "count" : 24,
            "max" : [
                1,
                1,
                1
            ],
            "min" : [
                -1,
                -1,
                -1
            ],
            "type" : "VEC3"
        },
        {
            "bufferView" : 18,
            "componentType" : 5126,
            "count" : 24,
            "type" : "VEC3"
        },
        {
            "bufferView" : 19,
            "componentType" : 5126,
            "count" : 24,
            "type" : "VEC2"
        },
        {
            "bufferView" : 20,
            "componentType" : 5123,
            "count" : 36,
            "type" : "SCALAR"
        }
    ],
    "bufferViews" : [
        {
            "buffer" : 0,
            "byteLength" : 22212,
            "byteOffset" : 0
        },
        {
            "buffer" : 0,
            "byteLength" : 22212,
            "byteOffset" : 22212
        },
        {
            "buffer" : 0,
            "byteLength" : 14808,
            "byteOffset" : 44424
        },
        {
            "buffer" : 0,
            "byteLength" : 6408,
            "byteOffset" : 59232
        },
        {
            "buffer" : 0,
            "byteLength" : 5784,
            "byteOffset" : 65640
        },
        {
            "buffer" : 0,
            "byteLength" : 5784,
            "byteOffset" : 71424
        },
        {
            "buffer" : 0,
            "byteLength" : 3856,
            "byteOffset" : 77208
        },
        {
            "buffer" : 0,
            "byteLength" : 1356,
            "byteOffset" : 81064
        },
        {
            "buffer" : 0,
            "byteLength" : 5784,
            "byteOffset" : 82420
        },
        {
            "buffer" : 0,
            "byteLength" : 5784,
            "byteOffset" : 88204
        },
        {
            "buffer" : 0,
            "byteLength" : 3856,
            "byteOffset" : 93988
        },
        {
            "buffer" : 0,
            "byteLength" : 5784,
            "byteOffset" : 97844
        },
        {
            "buffer" : 0,
            "byteLength" : 5784,
            "byteOffset" : 103628
        },
        {
            "buffer" : 0,
            "byteLength" : 3856,
            "byteOffset" : 109412
        },
        {
            "buffer" : 0,
            "byteLength" : 5784,
            "byteOffset" : 113268
        },
        {
            "buffer" : 0,
            "byteLength" : 5784,
            "byteOffset" : 119052
        },
        {
            "buffer" : 0,
            "byteLength" : 3856,
            "byteOffset" : 124836
        },
        {
            "buffer" : 0,
            "byteLength" : 288,
            "byteOffset" : 128692
        },
        {
            "buffer" : 0,
            "byteLength" : 288,
            "byteOffset" : 128980
        },
        {
            "buffer" : 0,
            "byteLength" : 192,
            "byteOffset" : 129268
        },
        {
            "buffer" : 0,
            "byteLength" : 72,
            "byteOffset" : 129460
        }
    ],
    "buffers" : [
        {
            "byteLength" : 129532,
            "uri" : "data:application/octet-stream;base64,"
        }
    ]
}
